<svg xmlns="http://www.w3.org/2000/svg" viewBox="0 0 81 81"><defs><style>.cls-1{fill:#fff;}.cls-2{fill:#bf1414;}.cls-3{fill:none;stroke:#fff;stroke-miterlimit:10;}</style></defs><title>2</title><g id="Слой_2" data-name="Слой 2"><g id="Слой_3" data-name="Слой 3"><g id="_2" data-name="2"><path class="cls-1" d="M50.53,19.7H45.3V16.5H35.7v3.2H30.47a2.77,2.77,0,0,0-2.77,2.77V61.73a2.77,2.77,0,0,0,2.77,2.77H50.53a2.78,2.78,0,0,0,2.77-2.77V22.47a2.78,2.78,0,0,0-2.77-2.77ZM30.47,21.3H50.53a1.17,1.17,0,0,1,1.17,1.17v30H29.3v-30a1.17,1.17,0,0,1,1.17-1.17Z"/><polygon class="cls-2" points="45 36.26 40.89 36.26 41.51 29.83 36 38.85 40.07 38.85 39.35 45.17 45 36.26"/><circle class="cls-3" cx="40.5" cy="40.5" r="40"/></g></g></g></svg>