<svg xmlns="http://www.w3.org/2000/svg" viewBox="0 0 81 81"><defs><style>.cls-1{fill:none;stroke:#fff;stroke-miterlimit:10;}.cls-2{fill:#fff;}.cls-3{fill:#bf1414;}</style></defs><title>3</title><g id="Слой_2" data-name="Слой 2"><g id="Слой_3" data-name="Слой 3"><g id="_3" data-name="3"><circle class="cls-1" cx="40.5" cy="40.5" r="40"/><path class="cls-2" d="M29.09,32.73a.69.69,0,0,0,.68-.68V23.37H43.62v8.68a.68.68,0,1,0,1.35,0V22.69a.67.67,0,0,0-.68-.67H29.09a.67.67,0,0,0-.67.67v9.36a.68.68,0,0,0,.67.68Z"/><path class="cls-2" d="M56.41,25.14h-.54V22.73a.68.68,0,1,0-1.35,0v2.41H53V22.73a.68.68,0,1,0-1.35,0v2.41h-.54a.67.67,0,0,0-.67.67v1.82a3.33,3.33,0,0,0,2.63,3.25V49.36a1,1,0,1,1-2,0V33.26a4,4,0,0,0-3.31-3.92V22.73a3.38,3.38,0,0,0-3.38-3.38H29.09a3.37,3.37,0,0,0-3.37,3.38V60.3H24.59a.68.68,0,0,0,0,1.35H49a.68.68,0,1,0,0-1.35H47.83V30.72a2.62,2.62,0,0,1,2,2.54v16.1a2.33,2.33,0,1,0,4.65,0V30.88a3.32,3.32,0,0,0,2.64-3.25V25.81a.67.67,0,0,0-.67-.67ZM29.09,20.7H44.45a2,2,0,0,1,2,2V34.08H27.07V22.73a2,2,0,0,1,2-2Zm-2,39.6V35.43H46.48V60.3ZM55.73,27.63a2,2,0,1,1-3.92,0V26.49h3.92Z"/><path class="cls-3" d="M40.54,41.79H33a.67.67,0,0,0-.67.67V56a.67.67,0,0,0,.67.68h7.54a.67.67,0,0,0,.68-.68V42.46a.67.67,0,0,0-.68-.67Zm-.67,13.5H33.68V43.14h6.19Z"/><path class="cls-3" d="M35.7,40.44h2.14a.68.68,0,1,0,0-1.35H35.7a.68.68,0,0,0,0,1.35Z"/><path class="cls-3" d="M35.7,53.94h2.14a.68.68,0,1,0,0-1.35H35.7a.68.68,0,0,0,0,1.35Z"/><path class="cls-3" d="M35.7,51.24h2.14a.68.68,0,1,0,0-1.35H35.7a.68.68,0,0,0,0,1.35Z"/><path class="cls-3" d="M35.7,48.54h2.14a.68.68,0,1,0,0-1.35H35.7a.68.68,0,0,0,0,1.35Z"/><path class="cls-3" d="M35.7,45.84h2.14a.68.68,0,1,0,0-1.35H35.7a.68.68,0,0,0,0,1.35Z"/></g></g></g></svg>