<svg xmlns="http://www.w3.org/2000/svg" viewBox="0 0 81 81"><defs><style>.cls-1{fill:none;stroke:#fff;stroke-miterlimit:10;}.cls-2{fill:#fff;}.cls-3{fill:#bf1414;}</style></defs><title>4</title><g id="Слой_2" data-name="Слой 2"><g id="Слой_3" data-name="Слой 3"><g id="_4" data-name="4"><circle class="cls-1" cx="40.5" cy="40.5" r="40"/><path class="cls-2" d="M62.91,54,44,22.72a4.13,4.13,0,0,0-7.08,0L18.09,54a4.13,4.13,0,0,0,3.54,6.27H59.37A4.13,4.13,0,0,0,62.91,54Zm-2.55,2.7a1.14,1.14,0,0,1-1,.57H21.63a1.13,1.13,0,0,1-1-1.72L39.53,24.27a1.13,1.13,0,0,1,1.94,0L60.34,55.56A1.15,1.15,0,0,1,60.36,56.71Z"/><path class="cls-3" d="M40.51,47.64c.67,0,1.62-.36,1.62-1.22,0-3.31.38-8.06.38-11.37a1.78,1.78,0,0,0-2-1.69c-1.14,0-2,.61-2,1.69,0,3.31.38,8.06.38,11.37C38.87,47.28,39.62,47.64,40.51,47.64Z"/><path class="cls-3" d="M40.51,49.36a2.14,2.14,0,1,0,0,4.28,2.14,2.14,0,0,0,0-4.28Z"/></g></g></g></svg>