<svg xmlns="http://www.w3.org/2000/svg" viewBox="0 0 81 81"><defs><style>.cls-1{fill:#bf1414;}.cls-2{fill:#fff;}.cls-3{fill:none;stroke:#fff;stroke-miterlimit:10;}</style></defs><title>Ресурс 8</title><g id="Слой_2" data-name="Слой 2"><g id="Слой_3" data-name="Слой 3"><path class="cls-1" d="M31.11,32.85a3.17,3.17,0,1,0-3.17-3.17A3.17,3.17,0,0,0,31.11,32.85Zm0-5.07a1.9,1.9,0,1,1-1.9,1.9A1.9,1.9,0,0,1,31.11,27.78Z"/><path class="cls-1" d="M34.28,53.75a3.17,3.17,0,1,0-3.17,3.17A3.17,3.17,0,0,0,34.28,53.75Zm-3.17,1.9a1.9,1.9,0,1,1,1.9-1.9A1.9,1.9,0,0,1,31.11,55.65Z"/><path class="cls-1" d="M55.18,32.85A3.17,3.17,0,1,0,52,29.68,3.17,3.17,0,0,0,55.18,32.85Zm0-5.07a1.9,1.9,0,1,1-1.9,1.9A1.9,1.9,0,0,1,55.18,27.78Z"/><path class="cls-2" d="M39.77,46.69a.59.59,0,0,1-.4-.16.56.56,0,0,1,0-.79l8.87-8.87a.56.56,0,0,1,.79.79l-8.87,8.87A.59.59,0,0,1,39.77,46.69Z"/><path class="cls-2" d="M39.35,43.24a.54.54,0,0,1-.39-.16.56.56,0,0,1,0-.79l5.54-5.53a.55.55,0,0,1,.78.78l-5.53,5.54A.55.55,0,0,1,39.35,43.24Z"/><path class="cls-2" d="M38.63,40a.56.56,0,0,1-.39-.17.54.54,0,0,1,0-.78l3-3a.56.56,0,0,1,.79,0,.57.57,0,0,1,0,.79l-3,3A.56.56,0,0,1,38.63,40Z"/><g id="_7" data-name="7"><g id="_6" data-name="6"><g id="_5" data-name="5"><circle class="cls-3" cx="40.5" cy="40.5" r="40"/></g></g></g><path class="cls-2" d="M35.92,59.45h-.11l5.76-5.77,20.57-21v-6.8A3.16,3.16,0,0,0,59,22.72H28.58a4.44,4.44,0,0,0-4.44,4.43v30.4a3.18,3.18,0,0,0,3.17,3.17h6.33Zm-8.61,0a1.9,1.9,0,0,1-1.9-1.9V27.15A3.17,3.17,0,0,1,28.58,24H59a1.91,1.91,0,0,1,1.9,1.9V31.8a2,2,0,0,1-.56,1.34L52.2,41.27h0l-9.49,9.5h0l-8.12,8.12a1.89,1.89,0,0,1-1.34.56Z"/><path class="cls-2" d="M62.14,32.68h0s0,.63-1.24,1.87S35.67,60.4,35.67,60.4s-.31.32-2.18.32.62-.63.62-.63l1.25-.62L61.52,32.68Z"/></g></g></svg>