<svg xmlns="http://www.w3.org/2000/svg" viewBox="0 0 81 81"><defs><style>.cls-1{fill:none;stroke:#fff;stroke-miterlimit:10;}.cls-2{fill:#bf1414;}.cls-3{fill:#fff;}</style></defs><title>Ресурс 13</title><g id="Слой_2" data-name="Слой 2"><g id="Слой_3" data-name="Слой 3"><g id="_5" data-name="5"><g id="_5-2" data-name="5"><circle class="cls-1" cx="40.5" cy="40.5" r="40"/></g><path class="cls-2" d="M38.38,46.47a2.88,2.88,0,0,0,.71.06,3,3,0,0,0,2.69-1.67c.12-.29.29-.65.47-1,.54-1,1-2.08,1.61-3.1l1.73-2.86a.64.64,0,0,0-.12-.71.54.54,0,0,0-.71-.12L41.9,38.79c-1,.59-2.09,1.13-3.1,1.6-.3.12-.66.3-1,.48a3.1,3.1,0,0,0-1.61,3.4A3,3,0,0,0,38.38,46.47Z"/><path class="cls-3" d="M40.5,18A26.4,26.4,0,0,0,14.18,44.33a25.71,25.71,0,0,0,5.7,16.32.81.81,0,0,0,.7.35H21V59.24h0a24.13,24.13,0,0,1-5.05-14.91A24.57,24.57,0,1,1,60.11,59.24h0V61h.31a.81.81,0,0,0,.7-.35,25.71,25.71,0,0,0,5.7-16.32A26.4,26.4,0,0,0,40.5,18Z"/></g><polygon class="cls-2" points="54.98 30.55 51.49 30.55 52.01 25.08 47.33 32.75 50.79 32.75 50.18 38.12 54.98 30.55"/></g></g></svg>