<svg xmlns="http://www.w3.org/2000/svg" xmlns:xlink="http://www.w3.org/1999/xlink" viewBox="0 0 81 81"><defs><style>.cls-1,.cls-2{fill:none;}.cls-2{stroke:#fff;stroke-miterlimit:10;}.cls-3{clip-path:url(#clip-path);}.cls-4{fill:#fff;}.cls-5{clip-path:url(#clip-path-2);}.cls-6{fill:#bf1414;}</style><clipPath id="clip-path"><rect class="cls-1" x="40.5" y="19.37" width="26.74" height="44.33"/></clipPath><clipPath id="clip-path-2"><rect class="cls-1" x="15.07" y="22.45" width="25.43" height="36.42"/></clipPath></defs><title>Ресурс 14</title><g id="Слой_2" data-name="Слой 2"><g id="Слой_3" data-name="Слой 3"><g id="_6" data-name="6"><g id="_5" data-name="5"><circle class="cls-2" cx="40.5" cy="40.5" r="40"/></g></g><g class="cls-3"><path class="cls-4" d="M31.32,42.57,35.55,32l5,22.45A1.5,1.5,0,0,0,42,55.62h0a1.51,1.51,0,0,0,1.46-1.09l4.7-16.48,1.48,4.44a1.52,1.52,0,0,0,1.44,1h12.1a1.51,1.51,0,1,0,0-3h-11l-2.68-8a1.44,1.44,0,0,0-1.47-1,1.52,1.52,0,0,0-1.42,1.1L42.2,48l-4.76-21.4a1.51,1.51,0,0,0-2.88-.24L28.89,40.5H17.81a1.51,1.51,0,0,0,0,3h12.1A1.51,1.51,0,0,0,31.32,42.57Z"/></g><g class="cls-5"><path class="cls-6" d="M31.32,42.57,35.55,32l5,22.45A1.5,1.5,0,0,0,42,55.62h0a1.51,1.51,0,0,0,1.46-1.09l4.7-16.48,1.48,4.44a1.52,1.52,0,0,0,1.44,1h12.1a1.51,1.51,0,1,0,0-3h-11l-2.68-8a1.44,1.44,0,0,0-1.47-1,1.52,1.52,0,0,0-1.42,1.1L42.2,48l-4.76-21.4a1.51,1.51,0,0,0-2.88-.24L28.89,40.5H17.81a1.51,1.51,0,0,0,0,3h12.1A1.51,1.51,0,0,0,31.32,42.57Z"/></g></g></g></svg>