<svg xmlns="http://www.w3.org/2000/svg" viewBox="0 0 81 81"><defs><style>.cls-1{fill:#fff;}.cls-2{fill:none;stroke:#fff;stroke-miterlimit:10;}.cls-3{fill:#bf1414;}</style></defs><title>Ресурс 1</title><g id="Слой_2" data-name="Слой 2"><g id="Слой_3" data-name="Слой 3"><g id="_7" data-name="7"><path class="cls-1" d="M42.08,59.83A19.33,19.33,0,1,1,57.69,29.11a1.23,1.23,0,0,1-2,1.46,16.86,16.86,0,1,0-.64,20.68c.33-.4.65-.81.94-1.24a1.24,1.24,0,0,1,2,1.4c-.34.48-.7,1-1.07,1.42A19.29,19.29,0,0,1,42.08,59.83Z"/><g id="_6" data-name="6"><g id="_5" data-name="5"><circle class="cls-2" cx="40.5" cy="40.5" r="40"/></g></g><path class="cls-3" d="M22.14,24.08a5,5,0,1,1,5-5A5,5,0,0,1,22.14,24.08Zm0-8a3,3,0,1,0,3,3A3,3,0,0,0,22.14,16.08Z"/></g></g></g></svg>