<svg width="87" height="68" viewBox="0 0 87 68" fill="none" xmlns="http://www.w3.org/2000/svg">
<path fill-rule="evenodd" clip-rule="evenodd" d="M80.4 5.5999C77.5 2.5999 73.6 0.899902 69.4 0.899902H59.3C55.1 0.899902 51.2 2.5999 48.3 5.5999C43.3773 10.7195 41.3625 25.5323 42.4466 38.3H4C1.8 38.3 0 40.1 0 42.3V44C0 44.0336 0.00138187 44.067 0.00409126 44.1001H-0.000244141V45.2001C-0.000244141 49.6001 3.09976 53.3001 7.39976 54.1001C10.7387 54.7361 14.3305 55.1825 18.0243 55.4895C18.4321 62.0221 23.8649 67.2 30.4998 67.2C37.1531 67.2 42.5977 61.9933 42.9785 55.4349C44.2773 55.3169 45.5556 55.1802 46.8154 55.0288C47.2814 55.8088 47.7611 56.484 48.3 57.0999C51.2 60.0999 55.1 61.7999 59.3 61.7999H69.4C73.6 61.7999 77.5 60.0999 80.4 57.0999C88.5 48.6999 88.5 13.9999 80.4 5.5999ZM2.50047 45.3C2.54575 48.4562 4.73313 51.1053 7.89976 51.6001C11.6909 52.3583 15.8414 52.8471 20.181 53.1515C20.3307 52.6428 20.5738 52.1515 20.9124 51.7L22.6124 49.4C23.5124 48.2 24.8124 47.5 26.3124 47.5H34.7124C36.1124 47.5 37.3124 48.1 38.2124 49.2L40.2124 51.5C40.6149 51.9888 40.91 52.5272 41.0928 53.0866C45.2178 52.7626 49.1766 52.2206 52.8998 51.6001C56.0664 51.1053 58.2538 48.4562 58.299 45.3H2.50047ZM60.7998 44.3897V45.2001C60.7998 48.9958 58.4928 52.2706 55.0986 53.6121C56.4671 54.3531 58.0015 54.8001 59.5998 54.8001H69.1998C74.3998 54.8001 78.5998 50.5001 78.5998 45.2001V39.6001C76.0998 36.3001 69.6998 35.1001 64.3998 35.1001C59.9599 35.1001 54.6643 35.9557 51.5997 38.3H56.8C59 38.3 60.8 40.1 60.8 42.3V44C60.8174 44.1394 60.8166 44.2696 60.7998 44.3897ZM48.1075 38.3C51.9572 32.9857 61.5525 32.6001 64.3998 32.6001C67.2998 32.6001 77.2998 33.1001 80.8998 38.6001C80.9998 38.8001 81.0998 39.0001 81.0998 39.2001V45.2001C81.0998 51.9001 75.7998 57.3001 69.1998 57.3001H59.5998C56.6369 57.3001 53.9159 56.1715 51.7986 54.3487C51.056 54.461 50.3074 54.5699 49.5525 54.6743C49.7178 54.8917 49.8959 55.0958 50.1 55.2999C52.6 57.7999 55.8 59.1999 59.3 59.1999H69.3C72.8 59.1999 76.1 57.7999 78.5 55.2999C85.7 47.8999 85.7 14.6999 78.5 7.2999C76.1 4.7999 72.8 3.3999 69.3 3.3999H59.2C55.7 3.3999 52.4 4.7999 50 7.2999C45.5735 11.9231 43.953 26.2223 44.9482 38.3H48.1075ZM64.3999 30C61.5 30 51.6 29.5999 47.9 24C47.8 23.7999 47.7 23.5999 47.7 23.2999V17.2999C47.7 10.5999 53 5.19995 59.5999 5.19995H69.2C75.7999 5.19995 81.0999 10.5999 81.0999 17.2999V23.2999C81.0999 23.5 81 23.7999 80.8999 24C77.2 29.5999 67.2999 30 64.3999 30ZM50.2 23C52.7 26.2999 59.1 27.5 64.3999 27.5C69.7 27.5 76.0999 26.2999 78.5999 23V17.4C78.5999 12.1 74.3999 7.79995 69.2 7.79995H59.5999C54.3999 7.79995 50.2 12.1 50.2 17.4V23ZM64.4001 21.9001C63.7001 21.9001 63.1001 21.3001 63.1001 20.6001V12.9001C63.1001 12.2001 63.7001 11.6001 64.4001 11.6001C65.1001 11.6001 65.7001 12.2001 65.7001 12.9001V20.6001C65.6001 21.3001 65.1001 21.9001 64.4001 21.9001ZM63.1001 49.7C63.1001 50.3999 63.7001 51 64.4001 51C65.1001 51 65.6001 50.4999 65.7001 49.7V42C65.7001 41.2999 65.1001 40.7 64.4001 40.7C63.7001 40.7 63.1001 41.2999 63.1001 42V49.7ZM24.7124 50.9C23.9924 51.8 23.0124 53.2 23.0124 53.2C22.4124 53.9 22.4124 54.8 22.9124 55.6L24.7124 58.3C25.1124 58.9 25.7124 59.2 26.4124 59.2H34.7124C35.4124 59.2 35.9124 58.9 36.4124 58.4L38.4124 55.7C39.0124 54.9 39.0124 53.9 38.3124 53.1L36.3124 50.8C35.9124 50.3 35.4124 50 34.7124 50H26.4124C26.4124 50 25.4324 50 24.7124 50.9ZM58.4 42.8H2.6V42.4001C2.6 41.6001 3.3 40.9001 4.1 40.9001H56.9C57.7 40.9001 58.4 41.6001 58.4 42.4001V42.8Z" fill="black" fill-opacity="0.1"/>
</svg>
